<?xml version="1.0" standalone="no"?>
<!DOCTYPE svg PUBLIC "-//W3C//DTD SVG 1.1//EN" "http://www.w3.org/Graphics/SVG/1.1/DTD/svg11.dtd" >
<!--
2013-9-30: Created.
-->
<svg>
<metadata>
Created by iconfont
</metadata>
<defs>

<font id="ku-icon" horiz-adv-x="1024" >
  <font-face
    font-family="ku-icon"
    font-weight="500"
    font-stretch="normal"
    units-per-em="1024"
    ascent="896"
    descent="-128"
  />
    <missing-glyph />
    
    <glyph glyph-name="x" unicode="x" horiz-adv-x="1001"
d="M281 543q-27 -1 -53 -1h-83q-18 0 -36.5 -6t-32.5 -18.5t-23 -32t-9 -45.5v-76h912v41q0 16 -0.5 30t-0.5 18q0 13 -5 29t-17 29.5t-31.5 22.5t-49.5 9h-133v-97h-438v97zM955 310v-52q0 -23 0.5 -52t0.5 -58t-10.5 -47.5t-26 -30t-33 -16t-31.5 -4.5q-14 -1 -29.5 -0.5
t-29.5 0.5h-32l-45 128h-439l-44 -128h-29h-34q-20 0 -45 1q-25 0 -41 9.5t-25.5 23t-13.5 29.5t-4 30v167h911zM163 247q-12 0 -21 -8.5t-9 -21.5t9 -21.5t21 -8.5q13 0 22 8.5t9 21.5t-9 21.5t-22 8.5zM316 123q-8 -26 -14 -48q-5 -19 -10.5 -37t-7.5 -25t-3 -15t1 -14.5
t9.5 -10.5t21.5 -4h37h67h81h80h64h36q23 0 34 12t2 38q-5 13 -9.5 30.5t-9.5 34.5q-5 19 -11 39h-368zM336 498v228q0 11 2.5 23t10 21.5t20.5 15.5t34 6h188q31 0 51.5 -14.5t20.5 -52.5v-227h-327z" />
    

    
    <glyph glyph-name="user" unicode="&#58889;" d="M914.285714 93.14742899999999q0-68.571429-41.728-108.288t-110.848-39.716571l-499.419429 0q-69.156571 0-110.848 39.716571t-41.728 108.288q0 30.281143 2.011429 59.136t8.009143 62.281143 15.140571 61.988571 24.576 55.698286 35.437714 46.299429 48.859429 30.573714 63.707429 11.446857q5.156571 0 23.990857-12.288t42.569143-27.428571 61.696-27.428571 76.288-12.288 76.288 12.288 61.696 27.428571 42.569143 27.428571 23.990857 12.288q34.852571 0 63.707429-11.446857t48.859429-30.573714 35.437714-46.299429 24.576-55.698286 15.140571-61.988571 8.009143-62.281143 2.011429-59.136zM731.428571 603.4285709999999q0-90.843429-64.292571-155.136t-155.136-64.292571-155.136 64.292571-64.292571 155.136 64.292571 155.136 155.136 64.292571 155.136-64.292571 64.292571-155.136z"  horiz-adv-x="1024" />

    
    <glyph glyph-name="chart" unicode="&#58898;" d="M469.977744 804.194084l0-443.10898c0-1.291412 0.481997-2.604314 1.488972-3.610224 1.006975-0.985444 2.275926-1.488911 3.588882-1.488911L932.211813 355.98596999999995c0-237.431597-199.42599-420.195108-437.458811-420.195108-238.032821 0-430.979994 186.046277-430.979994 423.477874C63.773009 596.722846 236.234798 804.194084 469.977744 804.194084zM526.006054 832.207092c237.98984 0 434.219914-182.76351 434.219914-420.195108L531.083908 412.011984c-1.312956 0-2.581907 0.503467-3.589905 1.487887-1.005951 1.006933-1.487948 2.319835-1.487948 3.611248L526.006054 832.207092z"  horiz-adv-x="1024" />

    
    <glyph glyph-name="home" unicode="&#58886;" d="M934.4 403.2c0-6.4-6.4-6.4-12.8-6.4 0 0 0 0 0 0-6.4 0-6.4 0-12.8 6.4L512 729.6 115.2 403.2c-6.4 0-6.4-6.4-12.8-6.4-6.4 0-6.4 0-12.8 6.4L57.6 448c-6.4 6.4-6.4 19.2 0 25.6l409.6 339.2c25.6 19.2 64 19.2 89.6 0l140.8-115.2L697.6 812.8c0 12.8 6.4 19.2 19.2 19.2l108.8 0c12.8 0 19.2-6.4 19.2-19.2L844.8 576l128-102.4c6.4-6.4 6.4-19.2 0-25.6L934.4 403.2zM838.4 134.39999999999998c0-19.2-19.2-38.4-38.4-38.4L582.4 96 582.4 320 441.6 320l0-217.6L217.6 102.39999999999998c-19.2 0-38.4 19.2-38.4 38.4L179.2 409.6c0 0 0 0 0 6.4L512 684.8l326.4-268.8c0 0 0 0 0-6.4L838.4 134.39999999999998z"  horiz-adv-x="1024" />

    
    <glyph glyph-name="account" unicode="&#58905;" d="M477.637378 417.238009L173.96717 417.238009c-60.734246 0-110.173239 49.471738-110.173239 110.300129L63.793932 721.085248c0 60.903092 49.489134 110.449531 110.37176 110.449531l194.09151 0c60.288085 0 109.3812-49.124837 109.3812-109.507066L477.638401 417.238009zM174.164668 755.355773c-18.924002 0-34.280758-15.374152-34.280758-34.270525l0-193.546088c0-18.821671 15.307637-34.122145 34.082236-34.122145l227.579205 0L401.545352 722.027713c0 18.375509-14.910595 33.32806-33.290197 33.32806L174.164668 755.355773zM850.214978 417.238009l-303.471686 0L546.743292 721.1589260000001c0 60.853973 49.489134 110.37483 110.272499 110.37483l193.397708 0c60.734246 0 110.173239-49.496298 110.173239-110.325711l0-193.47241C960.586738 466.809007 911.097604 417.238009 850.214978 417.238009zM622.834294 493.417015l227.381707 0c18.924002 0 34.280758 15.399735 34.280758 34.319643L884.496759 721.209068c0 18.821671-15.307637 34.146705-34.082236 34.146705L657.015791 755.355773c-18.824741 0-34.181497-15.349593-34.181497-34.195823L622.834294 493.417015zM366.869598-63.119317000000024L174.36319-63.119317000000024c-60.981886 0-110.569258 49.644677-110.569258 110.672612L63.793932 240.752482c0 60.903092 49.489134 110.449531 110.321618 110.449531l303.521828 0 0-303.425637C477.637378-13.375378999999953 427.949722-63.119317000000024 366.869598-63.119317000000024zM174.11555 275.023006c-18.87386 0-34.230616-15.374152-34.230616-34.270525L139.884934 47.55329500000005c0-19.020192 15.456017-34.493605 34.478256-34.493605L366.869598 13.059690000000046c19.1215 0 34.676777 15.572674 34.676777 34.716686L401.546376 275.023006 174.11555 275.023006zM850.90878-63.119317000000024L656.222729-63.119317000000024c-60.387345 0-109.479437 49.149397-109.479437 109.581768L546.743292 351.20201299999997l303.868729 0c60.634985 0 109.97574-49.397037 109.97574-110.12719l0-194.364733C960.586738-13.846099999999979 911.395386-63.119317000000024 850.90878-63.119317000000024zM622.834294 275.023006l0-228.560556c0-18.424628 14.960737-33.402761 33.388435-33.402761l194.686051 0c18.526959 0 33.586956 15.101953 33.586956 33.650401L884.495736 241.07482300000004c0 18.72241-15.208377 33.948183-33.884738 33.948183L622.834294 275.023006z"  horiz-adv-x="1024" />

    
    <glyph glyph-name="business" unicode="&#58899;" d="M157.738 720.488h708.356c19.519 0 35.438 15.919 35.438 35.381v35.438c0 19.519-15.919 35.438-35.438 35.438h-708.356c-19.519 0-35.438-15.919-35.438-35.438v-35.438c0-19.462 15.863-35.381 35.438-35.381zM961.832 438.169l-60.3 172.856v38.644c0 19.519-15.919 35.381-35.438 35.381h-708.356c-19.519 0-35.438-15.919-35.438-35.381v-38.644l-60.3-172.856c0 0-0.563-36.281 35.944-36.281 12.769 0 19.969 6.3 24.356 13.612v-438.862c0-19.519 15.919-35.438 35.438-35.438h460.406v354.263h177.075v-354.206h70.875c19.519 0 35.438 15.919 35.438 35.438v438.806c4.781-7.256 13.05-13.556 28.238-13.556 36.506 0 32.063 36.225 32.063 36.225zM318.895 578.794h89.1l-12.713-140.625c0 0 0-0.563 0.056-1.069h-0.113c0-0.731 0.225-1.463 0.225-2.25 0-27.731-22.444-50.175-50.175-50.175-27.169 0-49.219 21.656-50.006 48.656 0.056 1.294 0.056 2.475 0.056 3.262 0 0.169 0 0.337 0 0.45v0c-0.056 0.563-0.056 1.125-0.056 1.125l23.625 140.625zM178.72 384.731c-27.731 0-50.175 22.444-50.175 50.175 0 0.788 0.225 1.519 0.225 2.25h-0.169c0 0.506 0.056 1.069 0.056 1.069l41.794 140.625h89.044l-30.881-140.625c0 0 0.056-0.563 0.056-1.069h-0.056c0.056-0.731 0.225-1.462 0.225-2.25 0-27.731-22.444-50.175-50.119-50.175zM511.888 47.56899999999996h-283.331v247.894h283.331v-247.894zM511.888 384.731c-27.675 0-50.063 22.387-50.175 50.006 0.056 0.337 0.056 0.731 0.112 1.012 0 0.45 0.112 0.956 0.112 1.406v0c0 0.506 0 1.069 0 1.069l5.4 140.625h89.1l5.456-140.625c0 0 0-0.563 0-1.069h-0.056c0-0.563 0.112-1.181 0.169-1.744 0-0.169 0.056-0.394 0.056-0.563-0.056-27.731-22.5-50.119-50.175-50.119zM728.62 434.85c0-27.731-22.387-50.175-50.175-50.175-27.45 0-49.781 22.163-50.063 49.556 0.056 1.069 0.113 1.969 0.113 2.587 0 0.056 0.056 0.169 0.056 0.225h-0.056c0 0.506 0 1.069 0 1.069l-12.769 140.625h89.156l23.625-140.625c0 0 0.056-0.563 0.112-1.069h-0.281c0.113-0.675 0.281-1.406 0.281-2.194zM895.176 437.1h-0.788c0-0.731 0.225-1.463 0.225-2.25 0-27.731-22.444-50.175-50.175-50.175-26.944 0-48.769 21.319-49.95 48.038 0.563 3.262 0.619 5.456 0.619 5.456l-30.881 140.625h89.044l41.85-140.625c0.056 0 0.056-0.563 0.056-1.069z"  horiz-adv-x="1025" />

    
    <glyph glyph-name="cog" unicode="&#58885;" d="M658.285714 384q0 60.571429-42.857143 103.428571t-103.428571 42.857143-103.428571-42.857143-42.857143-103.428571 42.857143-103.428571 103.428571-42.857143 103.428571 42.857143 42.857143 103.428571z m292.571429 62.285714v-126.857143q0-6.857143-4.571429-13.142857t-11.428571-7.428571l-105.714286-16q-10.857143-30.857143-22.285714-52 20-28.571429 61.142857-78.857143 5.714286-6.857143 5.714286-14.285714t-5.142857-13.142857q-15.428571-21.142857-56.571429-61.714286t-53.714286-40.571429q-6.857143 0-14.857143 5.142857l-78.857142 61.714286q-25.142857-13.142857-52-21.714286-9.142857-77.714286-16.571429-106.285714-4-16-20.571429-16H448.571429q-8 0-14 4.857143T428-37.714286000000016l-16 105.142857q-28 9.142857-51.428571 21.142858l-80.571429-61.142858q-5.714286-5.142857-14.285714-5.142857-8 0-14.285715 6.285715-72 65.142857-94.285714 96-4 5.714286-4 13.142857 0 6.857143 4.571429 13.142857 8.571429 12 29.142857 38t30.857143 40.285714q-15.428571 28.571429-23.428572 56.571429l-104.571428 15.428571q-7.428571 1.142857-12 7.142857t-4.571429 13.428572V448.571429q0 6.857143 4.571429 13.142857t10.857143 7.428571l106.285714 16q8 26.285714 22.285714 52.571429-22.857143 32.571429-61.142857 78.857143-5.714286 6.857143-5.714286 13.714285 0 5.714286 5.142857 13.142857 14.857143 20.571429 56.285715 61.428572T265.714286 745.714286q7.428571 0 14.857143-5.714286l78.857142-61.142857q25.142857 13.142857 52 21.714286 9.142857 77.714286 16.571429 106.285714 4 16 20.571429 16h126.857142q8 0 14-4.857143T596 805.714286l16-105.142857q28-9.142857 51.428571-21.142858l81.142858 61.142858q5.142857 5.142857 13.714285 5.142857 7.428571 0 14.285715-5.714286 73.714286-68 94.285714-97.142857 4-4.571429 4-12.571429 0-6.857143-4.571429-13.142857-8.571429-12-29.142857-38t-30.857143-40.285714q14.857143-28.571429 23.428572-56l104.571428-16q7.428571-1.142857 12-7.142857t4.571429-13.428572z"  horiz-adv-x="1024" />

    
    <glyph glyph-name="publicity" unicode="&#58901;" d="M743.369387 718.506667c10.840747-6.437547 15.080107-17.339733 16.861866-28.5696 4.293973-27.01312 8.922453-54.135467 10.622294-81.373867 6.157653-98.816 6.273707-197.911893 4.150613-296.73472-0.976213-48.86528-3.761493-97.867093-6.826667-146.51392-1.112747-17.278293-5.85728-34.310827-8.942933-51.459413 0-0.641707-0.45056-1.24928-0.6144-1.890987-6.335147-22.99904-24.200533-23.1424-40.618667-13.940053-11.318613 6.273707-18.37056 17.066667-25.3952 27.56608-13.940053 20.964693-27.17696 42.51648-42.093226 62.805333-41.233067 56.087893-96.897707 89.565867-165.328214 101.04832-22.582613 3.795627-45.663573 4.683093-68.491946 6.888107-2.368853 0.22528-4.79232 0.273067-7.5776 0.443733V515.181227h15.74912a338.629973 338.629973 0 0 1 107.042133 19.510613 254.061227 254.061227 0 0 1 118.04672 87.927467c14.7456 19.510613 27.654827 40.523093 41.396907 60.84608 2.08896 3.126613 4.15744 6.273707 6.32832 9.311573 8.055467 11.34592 17.394347 21.183147 31.10912 25.7024l14.58176 0.027307zM177.493333 370.45589299999995c0.69632-2.512213 1.419947-4.990293 2.061654-7.502506 10.089813-40.52992 43.567787-66.205013 87.1424-66.423467 36.06528-0.170667 72.137387 0 108.209493 0 2.1504 0 4.293973 0.24576 6.437547 0.361813V514.3210670000001c-1.809067 0.16384-3.09248 0.4096-4.4032 0.4096-37.376 0-74.786133 0.505173-112.16896 0-40.584533-0.662187-72.308053-24.10496-83.626667-60.511574-1.338027-4.519253-2.423467-8.895147-3.652267-13.35296v-70.417066z m69.829974-105.540266c8.219307-29.4912 17.087147-58.81856 24.418986-88.562347 7.051947-28.678827 11.8784-57.890133 18.814294-86.582613 5.0176-20.76672 18.59584-34.699947 40.250026-36.51584 21.797547-1.8432 43.70432-2.06848 65.536-0.69632 28.71296 1.897813 40.277333 23.333547 39.615147 49.8688a59.487573 59.487573 0 0 1-19.51744 42.898773 56.7296 56.7296 0 0 0-17.3056 28.439893 1447.3216 1447.3216 0 0 0-13.1072 62.68928c-1.979733 10.758827-2.280107 21.797547-3.4816 33.839787H245.623467c0.443733-1.338027 1.140053-3.372373 1.69984-5.379413z m596.732586 144.42496c-2.1504 26.33728-21.13536 52.96128-41.0624 57.173333v-122.402133c25.811627 10.397013 43.23328 38.52288 41.089707 65.2288h-0.027307z"  horiz-adv-x="1024" />

    
    <glyph glyph-name="lock" unicode="&#58896;" d="M189.376 888.062zM370.823 452.6H661.13V561.462q0 60.106-42.532 102.622t-102.622 42.532-102.622-42.532-42.532-102.622V452.6z m471.738-54.423v-326.584q0-22.687-15.875-38.563t-38.563-15.876H243.799q-22.686 0-38.562 15.876t-15.876 38.563V398.177q0 22.687 15.876 38.563t38.562 15.876h18.147V561.477q0 104.321 74.839 179.177T515.96 815.4929999999999t179.176-74.84 74.84-179.176v-108.861h18.146q22.687 0 38.563-15.876t15.875-38.563z"  horiz-adv-x="1024" />

    
    <glyph glyph-name="order" unicode="&#58903;" d="M350.516 768.85h216.753c22.809 0 42.109 21.324 42.109 47.643s-19.165 47.508-43.324 47.508h-215.538c-24.023 0-43.189-21.189-43.189-47.508 0-26.318 19.3-47.643 43.189-47.643zM820.731 223.73000000000002c-87.862 0-159.258-71.531-159.258-159.798 0-88.402 71.261-159.933 159.258-159.933s159.258 71.531 159.258 159.933c0 88.267-71.396 159.798-159.258 159.798zM894.96 42.74300000000005c0.54-2.969 0.945-10.527 0.945-14.441 0-4.724-0.27-8.773-0.945-12.012h-58.574v-60.194c-2.429-0.405-4.994-0.81-7.558-0.945-2.699-0.27-5.264-0.27-7.963-0.27-2.699 0-5.264 0.135-7.963 0.27-2.699 0.27-5.129 0.54-7.558 0.945v60.194h-56.01c-0.81 2.564-1.215 6.208-1.215 10.932 0 1.889 0.135 7.963 0.27 9.852 0.135 1.889 0.54 3.779 0.945 5.533h56.01v24.428h-56.01c-0.81 2.564-1.215 10.257-1.215 14.981 0 1.889 0.135 3.914 0.27 5.803s0.54 3.779 0.945 5.533h43.864l-37.52 66.267c2.699 0.405 5.533 0.81 8.638 0.945 3.104 0.27 6.208 0.27 9.042 0.27 2.834 0 5.803-0.135 8.773-0.27 3.104-0.27 5.803-0.54 8.233-0.945l31.447-59.114 30.502 59.114c2.699 0.405 5.264 0.81 8.098 0.945 2.699 0.27 5.533 0.27 8.368 0.27 2.834 0 5.668-0.135 8.503-0.27 2.834-0.27 5.533-0.54 7.963-0.945l-36.576-66.267h46.293c0.54-2.969 0.945-6.478 0.945-10.392 0-4.724-0.27-12.821-0.945-16.06h-58.574v-24.428h58.574v0.27zM802.241 250.183c25.238 0 49.127-5.129 70.991-14.576l1.35 468.055c0 64.648-34.956 109.321-108.376 109.321h-97.714c0.945-5.129 1.485-10.527 1.485-15.791 0-39.95-29.153-92.856-63.973-92.856h-300.025c-36.576 0-65.862 52.906-65.862 92.856 0 5.264 0.675 10.662 1.62 15.791h-98.794c-79.493 0.135-98.929-44.673-98.929-109.186v-639.19c0-69.371 27.938-108.106 105.002-108.106h513.269c-25.913 30.772-41.434 70.451-41.434 113.64 0 97.984 82.598 180.042 181.392 180.042zM216.361 575.717h495.454c18.355 0 33.741-16.87 35.091-36.441 0-18.22-19.165-37.79-37.52-37.79h-496.803c-18.355 0-29.962 19.569-29.962 37.79s15.521 36.441 33.741 36.441zM216.361 395.675h495.454c18.355 0 33.741-16.87 35.091-36.441 0-18.22-19.165-37.79-37.52-37.79h-496.803c-18.355 0-29.962 19.569-29.962 37.79s15.521 36.441 33.741 36.441zM439.187 132.35900000000004h-217.697c-17.68 0-28.748 20.919-28.748 40.49s14.846 39.005 32.392 39.005h216.483c17.68 0 32.527-18.085 33.741-39.005 0-19.569-18.49-40.49-36.171-40.49z"  horiz-adv-x="1024" />

    
    <glyph glyph-name="dashboard" unicode="&#58887;" d="M219.428571 237.71428600000002q0 30.285714-21.428571 51.714285T146.285714 310.85714299999995t-51.714285-21.428572T73.142857 237.71428600000002t21.428572-51.714286T146.285714 164.57142899999997t51.714286 21.428571T219.428571 237.71428600000002z m109.714286 256q0 30.285714-21.428571 51.714285T256 566.857143t-51.714286-21.428572T182.857143 493.714286t21.428571-51.714286T256 420.571429t51.714286 21.428571T329.142857 493.714286z m244.571429-274.857143l57.714285 218.285714q3.428571 14.857143-4.285714 27.714286T605.142857 481.714286t-27.428571-3.714286-17.142857-22.571429l-57.714286-218.285714q-34.285714-2.857143-61.142857-24.857143t-36-56.285714q-11.428571-44 11.428571-83.428571t66.857143-50.857143 83.428571 11.428571 50.857143 66.857143q9.142857 34.285714-3.428571 66.857143t-41.142857 52z m377.142857 18.857143q0 30.285714-21.428572 51.714285T877.714286 310.85714299999995t-51.714286-21.428572-21.428571-51.714285 21.428571-51.714286 51.714286-21.428571 51.714285 21.428571 21.428572 51.714286z m-365.714286 365.714285q0 30.285714-21.428571 51.714286T512 676.571429t-51.714286-21.428572T438.857143 603.4285709999999t21.428571-51.714285T512 530.285714t51.714286 21.428572T585.142857 603.4285709999999z m256-109.714285q0 30.285714-21.428571 51.714285T768 566.857143t-51.714286-21.428572T694.857143 493.714286t21.428571-51.714286T768 420.571429t51.714286 21.428571T841.142857 493.714286z m182.857143-256q0-149.142857-80.571429-276-10.857143-16.571429-30.857142-16.571429H111.428571q-20 0-30.857142 16.571429Q0 88 0 237.71428600000002q0 104 40.571429 198.857143t109.142857 163.428571 163.428571 109.142857 198.857143 40.571429 198.857143-40.571429 163.428571-109.142857 109.142857-163.428571 40.571429-198.857143z"  horiz-adv-x="1024" />

    
    <glyph glyph-name="activity" unicode="&#58902;" d="M524.8 96m-25.6 0a25.6 25.6 0 1 1 51.2 0 25.6 25.6 0 1 1-51.2 0ZM1007.488 377.28c0 167.488-116.224 303.744-259.968 303.744-37.504 0-73.792-10.048-106.24-26.24a428.16 428.16 0 0 0 21.248-133.76c0-125.056-55.04-236.288-137.536-301.248 38.784-73.792 103.744-127.552 180.032-142.528l-8.768-26.24h30.016l-4.992-17.536a44.8 44.8 0 0 1 9.984-41.216c4.992-6.272 6.208-14.976 2.496-21.248l-30.016-52.48c-3.776-6.272-1.28-13.76 4.992-17.536 2.56-1.28 3.776-1.28 6.272-1.28 4.992 0 8.768 2.56 11.264 6.272l29.952 52.48a43.52 43.52 0 0 1-6.208 52.48c-3.776 5.056-6.272 11.328-3.776 17.536l6.272 24.96h19.968l-7.488 22.528c136.256 10.048 242.56 141.312 242.56 301.312zM882.56 276.03200000000004c-11.264-43.776-43.776-78.784-84.992-96.256-2.56-1.28-4.992-1.28-7.488-1.28a21.888 21.888 0 0 0-18.752 12.48 19.392 19.392 0 0 0 11.264 25.024c29.952 12.48 53.76 37.504 61.248 70.016a19.968 19.968 0 0 0 23.68 13.76c12.544-2.56 18.816-12.544 15.04-23.744zM636.224 533.44a408.96 408.96 0 0 1-21.248 132.48C569.984 801.024 457.6 896 326.272 896 156.16 896 17.472 733.44 17.472 533.504c0-181.248 113.792-331.264 262.528-357.504l-20.032-60.032h46.272l-12.48-48.704c-4.992-21.248 0-43.776 14.976-60.032a26.624 26.624 0 0 0 3.776-29.952l-42.496-76.288c-4.992-9.984-2.56-21.248 7.488-26.24 2.496-1.28 6.272-2.56 9.984-2.56a21.568 21.568 0 0 1 17.536 10.048l42.496 76.288c13.76 24.96 9.984 54.976-8.768 76.224a23.808 23.808 0 0 0-6.272 23.744l13.76 51.2c1.28 2.56 1.28 5.056 0 8.832h57.536l-20.032 61.248a267.84 267.84 0 0 1 118.784 56.256c80 62.464 133.76 172.48 133.76 297.472zM293.76 743.488C225.024 712.3199999999999 176.256 648.512 160 574.72a33.472 33.472 0 0 0-32.512-26.24c-2.496 0-3.712 0-6.208 1.28a32.768 32.768 0 0 0-25.024 38.72C115.008 682.24 178.752 762.24 266.24 803.52a33.408 33.408 0 0 0 43.776-16.256 33.408 33.408 0 0 0-16.256-43.776z"  horiz-adv-x="1024" />

    
    <glyph glyph-name="no-data" unicode="&#58912;" d="M156.662278 196.24182699999994h21.097186A10.444152 10.444152 0 0 0 187.994733 185.79767500000003c0-5.765172-4.490985-10.444152-10.235269-10.444152H156.662278v-21.097186A10.444152 10.444152 0 0 0 146.218126 144.021068a10.277045 10.277045 0 0 0-10.444152 10.235269V175.353523H114.676787A10.444152 10.444152 0 0 0 104.441518 185.79767500000003c0 5.765172 4.490985 10.444152 10.235269 10.444152H135.773974v21.097187A10.444152 10.444152 0 0 0 146.218126 227.57428300000004c5.765172 0 10.444152-4.490985 10.444152-10.235269v-21.097187z m1378.628042 83.553215v21.097186A10.277045 10.277045 0 0 1 1524.846168 311.12749699999995a10.444152 10.444152 0 0 1-10.444152-10.235269v-21.097186h-21.097186a10.277045 10.277045 0 0 1-10.235269-10.444152c0-5.598065 4.595427-10.444152 10.235269-10.444152h21.097186v-21.097187c0-5.744284 4.67898-10.235269 10.444152-10.235268a10.444152 10.444152 0 0 1 10.444152 10.235268V258.906738h21.097187c5.744284 0 10.235269 4.67898 10.235268 10.444152a10.444152 10.444152 0 0 1-10.235268 10.444152H1535.29032zM776.460024-64.86196900000004H250.596979A20.80475 20.80475 0 0 0 229.77134-43.97366499999998c0 11.530344 9.462402 20.888304 20.825639 20.888303h94.728457A83.010119 83.010119 0 0 0 334.212859 18.58680400000003v605.96969A83.49055 83.49055 0 0 0 417.849627 708.005267H480.430984V728.998012A83.49055 83.49055 0 0 0 564.067752 812.446785h501.152182A83.448773 83.448773 0 0 0 1148.856702 728.998012v-605.969689c0-15.185797-4.052331-29.410732-11.133466-41.672166h115.554096c11.551232 0 20.909192-9.274407 20.909192-20.888304 0-11.530344-9.295295-20.888304-20.888304-20.888304H1002.638576v-20.992745c0-15.185797-4.052331-29.410732-11.133466-41.672166h11.196131c11.488567 0 20.825639-9.274407 20.825639-20.888303 0-11.530344-9.462402-20.888304-20.825639-20.888304h-109.893365c9.545955-16.000441 7.478013-36.972297-6.41271-50.863019a41.672166 41.672166 0 0 0-59.072122 0L776.460024-64.86196900000004z m76.367638 41.776607h66.424806c22.977134 0 41.609501 18.59059 41.609501 41.881049V625.5382440000001c0 22.559368-18.047494 40.690416-40.314426 40.690416H416.303892c-22.266932 0-40.314426-18.214601-40.314426-40.690416v-606.742557c0-23.123352 18.799473-41.881049 41.588613-41.881049h317.084449l-10.736588 10.757477a41.693054 41.693054 0 0 0-10.861918 40.377091l-19.718558 19.739447A146.259902 146.259902 0 0 0 502.363703 268.306475a146.218126 146.218126 0 0 0 220.517822-190.981761l19.739447-19.739447a41.630389 41.630389 0 0 0 40.377091-10.841029L852.827662-23.085362000000032zM1002.638576 81.35615700000005h62.852906A41.797496 41.797496 0 0 1 1107.080095 123.13276399999995V728.8935710000001c0 23.14424-18.632367 41.776607-41.588613 41.776607H563.775316A41.797496 41.797496 0 0 1 522.207592 728.8935710000001v-20.888304h396.794216A83.448773 83.448773 0 0 0 1002.638576 624.5564939999999V81.35615700000005zM266.325872 849.001317h31.123572c8.773088 0 15.875111-6.955805 15.875111-15.666228 0-8.647758-7.102023-15.666228-15.875111-15.666228h-31.123572v-31.123572c0-8.773088-6.955805-15.875111-15.666228-15.875111a15.770669 15.770669 0 0 0-15.666228 15.875111V817.668861H203.869844A15.728893 15.728893 0 0 0 187.994733 833.335089c0 8.647758 7.102023 15.666228 15.875111 15.666228h31.123572V880.124889c0 8.773088 6.955805 15.875111 15.666228 15.875111 8.647758 0 15.666228-7.102023 15.666228-15.875111v-31.123572zM20.888304-43.97366499999998c0 11.530344 9.462402 20.888304 20.825638 20.888303h125.455152c11.488567 0 20.825639-9.274407 20.825639-20.888303 0-11.530344-9.462402-20.888304-20.825639-20.888304H41.713942A20.80475 20.80475 0 0 0 20.888304-43.97366499999998z m658.733544 135.021995a104.441518 104.441518 0 1 1-147.722083 147.722083 104.441518 104.441518 0 0 1 147.722083-147.722083zM459.542681 582.6754450000001a20.888304 20.888304 0 0 0 20.867415 20.888304H710.202325a20.888304 20.888304 0 1 0 0-41.776608H480.430984A20.825639 20.825639 0 0 0 459.542681 582.6754450000001z m0-104.441518c0 11.530344 9.295295 20.888304 20.742085 20.888303h334.505295c11.44679 0 20.742086-9.274407 20.742086-20.888303 0-11.530344-9.295295-20.888304-20.742086-20.888304H480.284766A20.762974 20.762974 0 0 0 459.542681 478.233927z m0-104.441519c0 11.530344 9.316183 20.888304 20.846527 20.888304h146.301679c11.509455 0 20.846527-9.274407 20.846527-20.888304 0-11.530344-9.316183-20.888304-20.846527-20.888303h-146.301679A20.80475 20.80475 0 0 0 459.542681 373.792408zM62.664911 499.12223a62.664911 62.664911 0 1 0 0 125.329822 62.664911 62.664911 0 0 0 0-125.329822z m0 31.332456a31.332456 31.332456 0 1 1 0 62.664911 31.332456 31.332456 0 0 1 0-62.664911zM1357.739739 624.452052a62.664911 62.664911 0 1 0 0 125.329822 62.664911 62.664911 0 0 0 0-125.329822z m0 31.332456a31.332456 31.332456 0 1 1 0 62.664911 31.332456 31.332456 0 0 1 0-62.664911z"  horiz-adv-x="1567" />

    
    <glyph glyph-name="clientele" unicode="&#58904;" d="M643.3 776.4c16.1-3.5 29.4-12.1 39.9-25.7 10.5-13.7 16.5-30.6 17.9-51 0-6.3 0.4-16.1 1-29.4 0.7-13.3 1.1-27.3 1.1-42s-0.5-28-1.6-39.9c-1.1-11.9-3-19.3-5.8-22.1-4.2-4.9-8.2-7.2-12.1-6.8-3.9 0.4-5.8-1.6-5.8-5.8 0-2.1-0.5-9.5-1.6-22.1-1-12.6-4-30.1-8.9-52.5-2.8-11.9-6.8-22.6-12.1-32-5.3-9.5-10.7-18-16.3-25.7-7-8.4-14-16.1-21-23.1-0.7-9.1-1.1-17.9-1.1-26.3v-22.1c0-7.7 0.4-13.7 1.1-17.9 0.7-8.4 2.8-14.4 6.3-17.9 3.5-3.5 10.5-6.7 21-9.5 3.5-1.4 9.8-3.5 18.9-6.3 9.1-2.8 20-6.5 32.6-11 12.6-4.5 25.7-9.3 39.4-14.2 13.7-4.9 26.8-9.6 39.4-14.2 12.6-4.6 23.8-8.8 33.6-12.6 9.8-3.9 17.2-6.8 22.1-8.9 14-7 23.3-14.4 27.8-22.1 4.6-7.7 8.6-17.5 12.1-29.4 1.4-6.3 3.3-17.9 5.8-34.7 2.4-16.8 5.1-34.3 7.9-52.5 2.8-18.2 5.1-35.4 6.8-51.5 1.8-16.1 3-26.3 3.7-30.5 0.7-9.1-0.9-16.8-4.7-23.1-3.9-6.3-12.8-11.2-26.8-14.7-11.9-2.8-29.2-5.8-52-8.9-22.8-3.2-49.2-6.1-79.3-8.9-30.1-2.8-63.2-5.1-99.3-6.8-36.1-1.8-74.1-2.6-114-2.6s-78.1 0.7-114.5 2.1c-36.4 1.4-69.9 3.3-100.3 5.8-30.5 2.5-57.4 5.3-80.9 8.4-23.5 3.2-41.9 6.5-55.2 10-2.8 0.7-6.3 2.1-10.5 4.2s-8.2 4.7-12.1 7.9-6.8 7-8.9 11.6c-2.1 4.6-2.8 9.6-2.1 15.2 0.7 4.9 2.6 15.9 5.8 33.1 3.2 17.2 6.8 35.5 11 55.2 4.2 19.6 8.1 38 11.6 55.2 3.5 17.2 6 27.8 7.4 32 2.8 8.4 6.8 17.2 12.1 26.3 5.3 9.1 14.2 18.6 26.8 28.4 6.3 4.9 17.9 10.2 34.7 15.8 16.8 5.6 34.3 10.9 52.5 15.8 18.2 4.9 35.4 9.1 51.5 12.6s26.6 6 31.5 7.4c10.5 2.1 19.8 4.7 27.8 7.9 8.1 3.2 12.1 7.5 12.1 13.1v60.9c-7.7 6.3-15.1 13.3-22.1 21-6.3 6.3-12.6 13.8-18.9 22.6-6.3 8.8-11.9 18-16.8 27.8-9.8 18.9-16.1 36.2-18.9 52-2.8 15.8-4.6 25-5.3 27.8-0.7 2.8-3.3 5.1-7.9 6.8-4.5 1.8-7.9 5.4-10 11-5.6 11.9-8.2 24.5-7.9 37.8 0.4 13.3 1.2 32.2 2.6 56.7 2.1 24.5 6.1 48 12.1 70.4 6 22.4 19.1 43.1 39.4 62 10.5 9.1 24.5 16.6 42 22.6s35.4 10.3 53.6 13.1c18.2 2.8 35.5 4.2 52 4.2s28.9-1.1 37.3-3.2c9.1-2.8 16.5-5.8 22.1-8.9 5.6-3.2 10-6.1 13.1-8.9 3.2-2.8 5.8-5.4 7.9-7.9 2.1-2.5 4.2-4.4 6.3-5.8 3.5-2.8 8.1-3.7 13.7-2.6 5.5 1 15.4 0.1 29.4-2.7z m-96.7-575.7L575 91.39999999999998l46.2 124-44.1 31.5-30.5-46.2zM470.9 249l-42-33.6 47.3-124 25.2 110.3-30.5 47.3zM845 659.8c9.8-1.4 17.7-6.3 23.6-14.7 6-8.4 9.3-18.6 10-30.5 0-3.5 0.3-9.3 1-17.3 0.7-8.1 1.1-16.3 1.1-24.7s-0.4-16.3-1.1-23.6c-0.7-7.4-1.7-11.7-3.2-13.1-2.8-2.8-5.4-4-7.9-3.7-2.4 0.4-3.7-0.9-3.7-3.7 0-1.4-0.2-5.8-0.5-13.1-0.3-7.4-2.3-18-5.8-32-1.4-7-3.5-13.3-6.3-18.9-2.8-5.6-6-10.5-9.5-14.7-3.5-4.9-7.7-9.5-12.6-13.7-0.7-5.6-1.1-10.9-1.1-15.8v-24.2c0.7-4.9 2.1-8.4 4.2-10.5 2.1-2.1 6.3-3.9 12.6-5.3 2.8-0.7 9.5-2.8 20-6.3s21.9-7.5 34.1-12.1c12.3-4.6 23.6-8.8 34.1-12.6 10.5-3.9 17.9-6.8 22.1-8.9 8.4-4.2 14.2-8.6 17.3-13.1 3.2-4.6 5.4-10.7 6.8-18.4 0.7-3.5 1.7-10.2 3.2-20 1.4-9.8 2.8-20.3 4.2-31.5 1.4-11.2 2.8-21.4 4.2-30.5 1.4-9.1 2.1-15.1 2.1-17.9 0.7-5.6-0.2-10.3-2.6-14.2-2.4-3.8-7.9-6.5-16.3-7.9-7-1.4-16.1-3.2-27.3-5.3-11.2-2.1-25.9-3.9-44.1-5.3-1.4 8.4-3.5 16.5-6.3 24.2-2.1 7-4.5 14.4-7.4 22.1-2.8 7.7-6.3 14.4-10.5 20-7.7 10.5-15.8 18.9-24.2 25.2-8.4 6.3-16.8 11.6-25.2 15.8-8.4 4.2-16.8 7.5-25.2 10-8.4 2.4-16.8 5.1-25.2 7.9-35.7 12.6-64.4 21.4-86.2 26.3-21.7 4.9-34 9.1-36.8 12.6-1.4 2.1-2.3 4.6-2.6 7.4-0.4 2.8-0.5 6-0.5 9.5s0.3 7.4 1 11.6c9.8 2.8 17.2 4.6 22.1 5.3 4.9 0.7 8.8 1.4 11.6 2.1 5.6 1.4 10.9 3 15.8 4.7 4.9 1.8 7.4 4.4 7.4 7.9v36.8l-2.1 1.1-4.2 2.1c-1.4 0.7-2.8 2.5-4.2 5.3 4.2 9.1 8.4 20 12.6 32.6 3.5 11.2 7.2 24.9 11 41 3.9 16.1 7.2 35.4 10 57.8 2.1 17.5 3.5 33.3 4.2 47.3 0.7 14 1.1 26.3 1.1 36.8v32.6c8.4 1.4 17.3 2.1 26.8 2.1s17-0.7 22.6-2.1c11.9-3.5 19.1-7 21.5-10.5 2.5-3.5 5.1-6.3 7.9-8.4 2.8-1.4 5.8-1.9 8.9-1.6 3.3-0.1 9.1-0.6 17.5-2z m-53.6-336.2l7.4-28.4 18.9-6.3 14.7 37.8-22.1 18.9-18.9-22z m-54.6 18.9l-17.9-17.9 1.1-4.2 32.6-9.5 4.2 11.6-20 20zM270.3 682.9c-11.2 1.4-22.4 1.8-33.6 1.1-9.8-0.7-20.5-2.4-32-5.3-11.6-2.8-22.2-7.7-32-14.7-8.4-5.6-15.1-12.3-20-20-4.9-7.7-8.6-15.6-11-23.6-2.4-8.1-4-15.6-4.7-22.6-0.7-7-1.1-12.6-1.1-16.8-0.7-9.1-1.4-17.3-2.1-24.7-0.7-7.4-0.4-13.8 1-19.4 1.4-5.6 2.5-9.5 3.2-11.6 0.7-2.1 2.1-3.9 4.2-5.3s3.9-2.3 5.3-2.6c1.4-0.4 2.8-5.1 4.2-14.2 0.7-9.1 3-18 6.8-26.8 3.9-8.8 7.9-15.9 12.1-21.5 2.1-3.5 4.7-6.8 7.9-10s6.1-6.5 8.9-10c2.8-3.5 6.3-7 10.5-10.5V394c-0.7-4.2-2.3-7.7-4.7-10.5-2.4-2.8-7.2-4.9-14.2-6.3-3.5-0.7-9.3-2.1-17.3-4.2-8.1-2.1-16.8-4.4-26.3-6.8-9.5-2.4-18.9-5.1-28.4-7.9-9.5-2.8-17-5.3-22.6-7.4-20.3-9.8-32.6-26.6-36.8-50.4-2.8-11.2-6-25.2-9.5-42s-6-28.7-7.4-35.7c-1.4-7-1.2-14.4 0.5-22.1 1.8-7.7 7.5-12.6 17.3-14.7 4.9-1.4 11-2.4 18.4-3.2 7.4-0.7 14.5-1.8 21.5-3.2 7.7-1.4 15.8-2.5 24.2-3.2 1.4 8.4 3.5 16.8 6.3 25.2 2.1 7.7 5.1 15.4 8.9 23.1 3.9 7.7 8.6 15.1 14.2 22.1 5.6 6.3 12.4 12.4 20.5 18.4 8.1 6 15.9 11.7 23.6 17.3 8.4 6.3 17.5 12.3 27.3 17.9L203 326.70000000000005l23.1 17.9 24.2-27.3 12.6 3.2c1.4 0 3.5 0.7 6.3 2.1 1.4 0.7 2.8 1.1 4.2 1.1l20 23.1 17.9-14.7c3.5 0.7 6.7 1.4 9.5 2.1 2.8 0.7 6 1.4 9.5 2.1l10.5 2.1c7.7 1.4 14.2 2.8 19.4 4.2 5.3 1.4 8.2 4.9 8.9 10.5 0 2.8 0.2 5.1 0.5 6.8 0.3 1.7 0.5 3.3 0.5 4.7v3.2c-6.3 2.1-12.3 4.2-17.9 6.3l-14.7 4.2c-4.9 1.4-8.8 2.8-11.6 4.2-5.6 2.1-8.8 5.1-9.5 8.9-0.7 3.9-1.1 8.9-1.1 15.2v10.5c0 3.5 0.4 7 1.1 10.5 0 3.5 0.4 7.7 1.1 12.6-5.6 8.4-11.2 17.5-16.8 27.3-4.9 8.4-9.6 18-14.2 28.9-4.6 10.9-8.2 22.2-11 34.1-3.5 16.1-6 33.3-7.4 51.5-1.4 18.2-1.7 34.7-1.1 49.4 0.1 17.6 1.2 34.7 3.3 51.5z"  horiz-adv-x="1024" />

    
    <glyph glyph-name="commodity" unicode="&#58900;" d="M533.333333 389.290667l417.962667 227.968-20.48 37.461333L512 426.282667 93.184 654.72l-20.48-37.461333 417.962667-227.968v-456.661334h42.666666V389.290667z m366.72-289.408l-312.618666-171.989334a156.074667 156.074667 0 0 0-150.4 0l-313.045334 171.946667A156.416 156.416 0 0 0 42.666667 236.33066699999995V567.637333c0 56.746667 31.530667 109.056 81.237333 136.448L436.565333 876.032a156.074667 156.074667 0 0 0 150.4 0l313.045334-171.946667A156.416 156.416 0 0 0 981.333333 567.637333v-331.349333c0-56.746667-31.573333-109.013333-81.28-136.405333z"  horiz-adv-x="1024" />

    
    <glyph glyph-name="eye" unicode="&#58883;" d="M512 640c-163.8 0-291.4-97.6-448-256 134.8-135.4 248-256 448-256 199.8 0 346.8 152.8 448 253.2C856.4 498.8 709.6 640 512 640z m0-438.6c-98.8 0-179.2 82-179.2 182.6 0 100.8 80.4 182.6 179.2 182.6s179.2-82 179.2-182.6c0-100.8-80.4-182.6-179.2-182.6zM512 448c0 15.8 5.8 30.2 15.2 41.4-5 0.8-10 1.2-15.2 1.2-57.6 0-104.6-47.8-104.6-106.6s47-106.6 104.6-106.6S616.6 325.20000000000005 616.6 384c0 4.6-0.4 9.2-0.8 13.8-11-8.6-24.6-13.8-39.6-13.8-35.6 0-64.2 28.6-64.2 64z"  horiz-adv-x="1042" />

    
    <glyph glyph-name="eye-close" unicode="&#58884;" d="M941.677 504.29c9.338 14.006 6.225 32.681-6.225 43.575-14.006 10.894-32.681 7.781-43.575-6.225-1.557-1.556-174.3-205.426-379.728-205.426-199.2 0-379.727 205.426-381.283 206.982-10.895 12.45-31.125 14.006-43.576 3.113-12.45-10.894-14.006-31.125-3.113-43.576 3.113-4.668 40.463-46.687 99.6-93.375l-79.37-82.482c-12.45-12.45-10.893-32.681 1.557-43.575 3.113-6.225 10.894-9.338 18.676-9.338 7.78 0 15.562 3.113 21.787 9.338l85.594 88.706c40.463-28.013 88.707-54.47 141.62-73.144l-32.682-110.495c-4.668-17.118 4.67-34.237 21.788-38.906h9.337c14.006 0 26.457 9.338 29.569 23.344l32.681 110.495c24.9-4.669 51.357-7.782 77.813-7.782s52.913 3.113 77.814 7.782l32.68-108.939c3.114-14.006 17.12-23.343 29.57-23.343 3.113 0 6.225 0 7.782 1.556 17.118 4.67 26.456 21.787 21.788 38.906L649.099 300.41999999999996c52.914 18.676 101.157 45.132 141.62 73.144l84.038-87.15c6.225-6.225 14.006-9.338 21.787-9.338 7.781 0 15.563 3.113 21.787 9.337 12.45 12.451 12.45 31.125 1.557 43.576l-79.37 82.481c63.808 46.689 101.16 91.82 101.16 91.82z"  horiz-adv-x="1024" />

    
    <glyph glyph-name="avatar" unicode="&#58888;" d="M514.594 824.888c-144.11 0-260.979-118.46-260.979-264.558 0-88.783 43.497-166.928 109.711-214.898-135.361-59.354-230.159-195.858-230.159-354.931h0.894c1.541-21.375 18.641-38.377 40.117-38.377s38.575 17.051 40.117 38.377h0.645c0 0.944-0.099 1.79-0.099 2.734v0.149c0 0.099-0.05 0.149-0.05 0.199 0.05 159.967 120 291.054 273.009 304.924 8.948-0.944 17.598-2.734 26.844-2.734 144.11 0 260.979 118.46 260.979 264.558S658.704 824.889 514.594 824.889z m0-447.343c-99.769 0-180.698 81.972-180.698 183.183s80.879 183.183 180.698 183.183c99.719 0 180.647-81.972 180.647-183.183s-80.879-183.183-180.647-183.183z m381.427-384.16c0 0.348-0.199 0.645-0.199 0.994-1.043 105.038-43.397 200.034-111.35 269.131-7.157 7.357-17.001 11.98-27.986 11.98-21.574 0-39.122-17.747-39.122-39.668 0-11.135 4.573-21.127 11.83-28.334l-0.099-0.05c52.742-55.229 85.302-130.589 85.302-213.853 0-1.043-0.149-1.987-0.149-3.034h0.994c1.491-21.375 18.691-38.377 40.117-38.377 21.475 0 38.575 17.051 40.117 38.377h0.597c0 0.796-0.099 1.491-0.099 2.287-0.05 0.149 0.05 0.348 0.05 0.547z"  horiz-adv-x="1024" />

    
    <glyph glyph-name="arrows" unicode="&#58881;" d="M944.29010452-51.478532040000005c-23.92444811-23.92444811-62.69707757-23.92444811-86.62014483 0L683.23938523 122.95204239999998l-7.18313396-88.51465843c-1.27313524-15.07325842-7.83350999-28.44946347-17.731377-38.37632816-12.27291324-12.27291324-29.66598425-19.28620377-48.27419517-17.72999616-33.73670299 2.74234988-58.87767186 32.32272198-56.10632433 66.00419133l17.95783491 220.49542431c2.48827516 29.94905661 26.18626538 53.61804916 56.04970984 56.10770517l220.49680515 17.95645406c33.68146934 2.68711623 63.28945829-22.36962133 66.00419135-56.13394113 2.77134753-33.68146934-22.36962133-63.23422464-56.04970986-66.00419135l-88.48704162-7.15551714 174.42781277-174.42781278c23.86921447-23.95344575 23.86921447-62.75369204-0.05523364-86.65052332zM407.48547288 789.72831651c-18.60821093 1.52582912-35.99852027-5.45846377-48.27419519-17.73137701-9.95310065-9.92686468-16.45686092-23.24645526-17.72999616-38.31833283l-7.23974842-88.54503694-174.37257914 174.40019596c-23.92444811 23.98244341-62.69569673 23.95344575-86.62014483 0.05661446-23.92444811-23.98106258-23.92444811-62.7523112 0-86.64776164l174.37257913-174.40019595-88.48704163-7.21213163c-33.68146934-2.77134753-58.82243822-32.32272198-56.04970984-66.00419134 2.71473306-33.73808384 32.26610751-58.82243822 66.00419133-56.10632432l220.49542431 17.92883724c29.83582767 2.43166069 53.59043233 26.21526303 56.0510907 56.13532199l17.9578349 220.49542432c2.71473306 33.62347404-22.36962133 63.17761019-56.10770516 65.94895769z m-17.95783491-468.87692902l-220.49542431 17.98545171c-33.68146934 2.7161139-63.23284381-22.39723814-66.00419133-56.10632432-1.55620761-18.63582774 5.45708293-35.99852027 17.72999616-48.27419517a61.72910816 61.72910816 0 0 1 38.37632815-17.75761299l88.5436561-7.15551714-174.42781276-174.42781277c-23.92582894-23.92582894-23.92582894-62.69707757 0-86.62152567s62.69431589-23.95344575 86.62014483 0l174.42781275 174.37257913 7.18313397-88.4594248c2.77134753-33.70908618 32.32410283-58.82105739 66.00419135-56.07870751 33.79469829 2.77134753 58.82243822 32.32410283 56.10770516 66.00419133l-17.9578349 220.49680516c-2.48827516 29.83582767-26.1876462 53.56281552-56.10770517 56.02209304z m238.4256424 126.26822737l220.49680515-17.95645406c33.68146934-2.74373072 63.23284381 22.36962133 66.00419132 56.07732666 1.55620761 18.6648254-5.45708293 35.99990111-17.72999615 48.301812-9.95586234 9.89786702-23.24645526 16.4596226-38.31971368 17.731377l-88.5436561 7.21213161 174.37257913 174.40019596c23.98106258 23.92444811 23.98106258 62.69569673 0.05523363 86.59252801-23.97968174 23.95206491-62.7523112 23.95206491-86.64776164 0l-174.37257913-174.40019594-7.23974844 88.48566077c-2.77134753 33.73808384-32.32272198 58.85143588-66.00419135 56.07870751-33.73808384-2.74234988-58.82105739-32.29510517-56.10632432-65.97657451l17.90122044-220.52442198c2.4592775-29.80683001 26.21388219-53.50482021 56.13394114-56.02071219z"  horiz-adv-x="1024" />

    
    <glyph glyph-name="arrows-alt" unicode="&#58882;" d="M874.03867197 21.961328030000004c10.01263202 10.01263202 14.68519363 23.35149434 13.99505741 36.46408249l-11.3137085 214.96046149C876.10908062 284.81271759000003 871.44783272 296.08117125 862.72496347 304.80404051000005c-18.74681498 18.74681498-49.13543601 18.74681498-67.882251 0-10.01263202-10.01263202-14.67387992-23.36280805-13.99505741-36.4640825L785.58809892 178.29415207 579.88225099 384 785.58809892 589.70584793l-4.74044386-90.04580594C780.15751884 486.57008125 784.83008045 473.20859151 794.84271247 463.19595949c18.74681498-18.74681498 49.13543601-18.74681498 67.882251 0 8.73418296 8.73418296 13.38411715 19.99132292 13.99505741 31.4181685l11.3137085 214.96046149C888.7238656 722.66455021 884.05130399 736.02603995 874.03867197 746.03867197s-23.36280805 14.67387992-36.46408249 13.99505741l-214.96046149-11.3137085C611.18728241 748.10908062 599.93014245 743.45914643 591.19595949 734.72496347c-18.74681498-18.74681498-18.74681498-49.13543601 0-67.882251 10.01263202-10.01263202 23.35149434-14.66256621 36.4640825-13.99505741L717.70584793 657.58809892 512 451.88225099 306.29415207 657.58809892l90.04580594-4.74044386C409.45254617 652.15751884 422.79140849 656.83008045 432.80404051 666.84271247c18.74681498 18.74681498 18.74681498 49.13543601 0 67.882251-8.73418296 8.73418296-19.99132292 13.38411715-31.4181685 13.99505741l-214.96046149 11.3137085C173.32413608 760.71255189 159.97396005 756.05130399 149.96132803 746.03867197s-14.66256621-23.35149434-13.99505741-36.46408249l11.3137085-214.96046149C147.87960567 483.1759687 152.54085357 471.93014245 161.27503653 463.19595949c18.74681498-18.74681498 49.13543601-18.74681498 67.882251 0 10.01263202 10.01263202 14.66256621 23.35149434 13.99505741 36.4640825L238.41190108 589.70584793 444.11774901 384l-205.70584793-205.70584793 4.72913015 90.03449224C243.83116745 281.44123246000004 239.16991955 294.79140849 229.15728753 304.80404051000005c-18.74681498 18.74681498-49.13543601 18.74681498-67.882251 0-8.72286925-8.72286925-13.38411715-19.99132292-13.99505741-31.4181685l-11.3137085-214.96046149c-0.69013622-13.11258815 3.98242539-26.45145047 13.99505741-36.46408249s23.36280805-14.69650734 36.46408249-13.99505741l214.96046149 11.3137085C412.81271759 19.890919380000014 424.08117125 24.55216728000005 432.80404051 33.275036529999966c18.74681498 18.74681498 18.74681498 49.13543601 0 67.882251-10.01263202 10.01263202-23.37412176 14.68519363-36.4640825 13.99505741L306.29415207 110.41190108 512 316.11774901l205.70584793-205.70584793-90.03449224 4.72913015C614.54745383 115.81985373999999 601.20859151 111.16991955000003 591.19595949 101.15728752999996c-18.74681498-18.74681498-18.74681498-49.13543601 0-67.882251 8.72286925-8.72286925 19.99132292-13.38411715 31.4181685-13.99505741l214.96046149-11.3137085c13.10127444-0.70144993 26.45145047 3.98242539 36.46408249 13.99505741z"  horiz-adv-x="1024" />

    
    <glyph glyph-name="phone" unicode="&#58897;" d="M785.82 847.79C714.296 883.552 622.337 955.076 566.14 801.81c-56.198-148.156 0-168.591 71.524-204.353 51.088-25.545 5.108-148.157-51.089-255.443-56.197-107.286-122.612-219.68-173.7-194.136-71.525 35.762-117.504 71.524-204.355-61.306-86.85-132.83 25.544-168.592 91.96-204.354 81.741-40.871 280.986 91.959 429.143 388.272C882.888 561.6949999999999 867.562 806.92 785.82 847.79z"  horiz-adv-x="1024" />

    


  </font>
</defs>
</svg>
